<?xml version="1.0" encoding="UTF-8"?>
<svg id="Layer_2" data-name="Layer 2" xmlns="http://www.w3.org/2000/svg" xmlns:xlink="http://www.w3.org/1999/xlink" viewBox="0 0 1039.6 289.82">
  <defs>
    <style>
      .cls-1 {
        fill: url(#Dégradé_sans_nom_10-2);
      }

      .cls-1, .cls-2, .cls-3, .cls-4 {
        stroke-width: 0px;
      }

      .cls-2 {
        fill: url(#Dégradé_sans_nom_10-3);
      }

      .cls-3 {
        fill: #fff;
      }

      .cls-4 {
        fill: url(#Dégradé_sans_nom_10);
      }
    </style>
    <radialGradient id="Dégradé_sans_nom_10" data-name="Dégradé sans nom 10" cx="321.74" cy="172.81" fx="321.74" fy="172.81" r="223.1" gradientUnits="userSpaceOnUse">
      <stop offset="0" stop-color="#0088f7"/>
      <stop offset=".14" stop-color="#0097f7"/>
      <stop offset=".5" stop-color="#00b9f8"/>
      <stop offset=".8" stop-color="#00cef8"/>
      <stop offset="1" stop-color="#00d6f9"/>
    </radialGradient>
    <radialGradient id="Dégradé_sans_nom_10-2" data-name="Dégradé sans nom 10" cx="-2977.34" cy="3029.95" fx="-2977.34" fy="3029.95" r="80.04" gradientTransform="translate(-2944.52 -2889.43) rotate(-90)" xlink:href="#Dégradé_sans_nom_10"/>
    <radialGradient id="Dégradé_sans_nom_10-3" data-name="Dégradé sans nom 10" cx="-2977.34" cy="3029.95" fx="-2977.34" fy="3029.95" r="80.04" gradientTransform="translate(-2944.52 -2889.43) rotate(-90)" xlink:href="#Dégradé_sans_nom_10"/>
  </defs>
  <g id="Calque_1" data-name="Calque 1">
    <g>
      <g>
        <polygon class="cls-3" points="443.04 80.6 315.99 80.6 315.99 101.74 368.29 101.74 368.29 237.51 390.74 237.51 390.74 101.74 443.04 101.74 443.04 80.6"/>
        <path class="cls-3" d="M524.61,124.9c-8.39-5.56-18.58-8.34-30.57-8.34s-21.52,2.58-30.13,7.74c-8.61,5.16-15.33,12.46-20.16,21.9-4.83,9.44-7.25,20.6-7.25,33.46,0,12.13,2.45,22.79,7.35,31.98,4.9,9.19,11.75,16.35,20.54,21.47,8.79,5.12,19.03,7.68,30.73,7.68s21.76-2.89,31.06-8.66c9.3-5.78,16.2-13.93,20.7-24.46l-21.9-6.98c-2.91,6.1-6.99,10.79-12.26,14.06-5.27,3.27-11.5,4.9-18.69,4.9-10.9,0-19.23-3.58-25.01-10.73-4.8-5.94-7.57-13.94-8.38-23.92h87.87c.8-14.02-.89-26.15-5.07-36.4-4.18-10.24-10.46-18.14-18.85-23.7ZM469.03,147.34c5.78-7.23,14.4-10.84,25.88-10.84,10.39,0,18.14,3.29,23.26,9.86,3.88,4.98,6.32,12.01,7.35,21.09h-64.37c1.2-8.29,3.81-15.01,7.88-20.1Z"/>
        <polygon class="cls-3" points="668.5 119.83 641.91 119.83 612.6 160.47 582.96 119.83 556.37 119.83 599.52 178.02 555.39 237.51 582.09 237.51 612.6 195.56 642.89 237.51 669.59 237.51 625.34 178.02 668.5 119.83"/>
        <path class="cls-3" d="M770.33,124.68c-8.03-5.41-17.53-8.12-28.5-8.12s-20.47,2.71-28.06,8.12c-2.51,1.79-4.81,3.82-6.92,6.05v-10.9h-19.94v169.99h22.56v-60.83c1.38,1.26,2.82,2.46,4.36,3.57,7.63,5.48,17.07,8.23,28.33,8.23s20.41-2.72,28.33-8.17c7.92-5.45,14.04-12.88,18.36-22.29,4.32-9.41,6.48-19.99,6.48-31.76s-2.16-22.43-6.48-31.76c-4.32-9.33-10.5-16.71-18.52-22.12ZM768.04,199.81c-2.36,6.32-5.94,11.33-10.73,15.04-4.79,3.7-10.86,5.56-18.2,5.56s-13.71-1.78-18.47-5.34c-4.76-3.56-8.24-8.48-10.46-14.76-2.22-6.28-3.32-13.53-3.32-21.74s1.13-15.45,3.38-21.74c2.25-6.28,5.7-11.17,10.35-14.66,4.65-3.49,10.57-5.23,17.76-5.23,7.55,0,13.78,1.85,18.69,5.56,4.9,3.7,8.55,8.7,10.95,14.98,2.4,6.29,3.59,13.31,3.59,21.09s-1.18,14.93-3.54,21.25Z"/>
        <rect class="cls-3" x="821.48" y="78.53" width="22.45" height="21.79"/>
        <rect class="cls-3" x="821.48" y="119.83" width="22.45" height="117.68"/>
        <rect class="cls-3" x="878.8" y="77.33" width="22.45" height="160.18"/>
        <path class="cls-3" d="M1028.19,184.99h11.22c.8-14.02-.89-26.15-5.07-36.4-4.18-10.24-10.46-18.14-18.85-23.7-8.39-5.56-18.58-8.34-30.56-8.34s-21.52,2.58-30.13,7.74c-8.61,5.16-15.33,12.46-20.16,21.9-4.83,9.44-7.25,20.6-7.25,33.46,0,12.13,2.45,22.79,7.35,31.98,4.9,9.19,11.75,16.35,20.54,21.47,8.79,5.12,19.03,7.68,30.73,7.68s21.76-2.89,31.06-8.66c9.3-5.78,16.2-13.93,20.7-24.46l-21.9-6.98c-2.91,6.1-6.99,10.79-12.26,14.06-5.27,3.27-11.5,4.9-18.69,4.9-10.9,0-19.23-3.58-25.01-10.73-4.8-5.94-7.57-13.94-8.39-23.92h76.65ZM959.92,147.34c5.78-7.23,14.4-10.84,25.88-10.84,10.39,0,18.14,3.29,23.26,9.86,3.88,4.98,6.32,12.01,7.35,21.09h-64.37c1.2-8.29,3.81-15.01,7.88-20.1Z"/>
      </g>
      <g>
        <path class="cls-4" d="M248.91,204.5c-4.6-9.72-7.06-20.6-7.06-31.38v-105.74H104.89V0h-37.52v67.37H0v37.52h67.37v68.22c0,16.34,3.72,32.75,10.74,47.52l18.08,38.03h178.5l-25.79-54.17ZM119.9,221.14l-7.91-16.65c-4.64-9.72-7.09-20.6-7.09-31.38v-68.22h99.43v68.22c0,16.34,3.68,32.75,10.71,47.52l.24.51h-95.37Z"/>
        <rect class="cls-1" x="67.37" y="104.89" width="37.52" height="67.37"/>
        <rect class="cls-2" x="67.37" width="37.52" height="67.37"/>
      </g>
    </g>
  </g>
</svg>