<svg id="Layer_1" enable-background="new 0 0 24 24" viewBox="0 0 24 24" xmlns="http://www.w3.org/2000/svg"><g><g><g><g><path d="m20 24h-16c-2.2 0-4-1.8-4-4v-16c0-2.2 1.8-4 4-4h16c2.2 0 4 1.8 4 4v16c0 2.2-1.8 4-4 4z" fill="#69a1ff"/></g><g><path d="m24 4v16c0 2.2-1.8 4-4 4h-16c-.1 0-.1 0-.2 0-2.1-.1-3.8-1.9-3.8-4v-16c0-2.2 1.8-4 4-4h16c2.2 0 4 1.8 4 4z" fill="#b5d1ff"/></g><g><path d="m16.7 24h-12.7c-2.2 0-4-1.8-4-4v-3.3l2.3-2.3c1.3-1.3 3.5-1.3 4.8 0z" fill="#2979ff"/></g><g><path d="m24 14.3v5.7c0 2.2-1.8 4-4 4h-16c-.1 0-.1 0-.2 0l12.5-12.6c1.3-1.3 3.5-1.3 4.8 0z" fill="#69a1ff"/></g></g></g><g><g><g><path d="m14.6 6.3h-1.6v4.1c0 .6-.5 1-1 1s-1-.4-1-1v-4.1h-1.6c-.6 0-1-.7-.6-1.2l2.6-3.1c.3-.4.9-.4 1.1 0l2.6 3.2c.4.4.1 1.1-.5 1.1z" fill="#69a1ff"/></g></g></g></g></svg>