<svg height="512pt" viewBox="0 0 512 512" width="512pt" xmlns="http://www.w3.org/2000/svg"><path d="m432 320h-336c-52.945312 0-96-43.054688-96-96 0-41.121094 26.398438-77.390625 64.382812-90.65625 5.472657-74.449219 67.792969-133.34375 143.617188-133.34375 49.710938 0 95.089844 25.246094 121.425781 66.734375 7.40625-1.804687 14.957031-2.734375 22.574219-2.734375 52.945312 0 96 43.054688 96 96 0 .527344 0 1.070312-.015625 1.601562 36.480469 7.421876 64.015625 39.757813 64.015625 78.398438 0 44.113281-35.886719 80-80 80zm0 0" fill="#bee4f1"/><path d="m432 336c0 97.203125-78.796875 176-176 176s-176-78.796875-176-176 78.796875-176 176-176 176 78.796875 176 176zm0 0" fill="#ef5350"/><g fill="#fff"><path d="m180.679688 283.3125 22.628906-22.628906 128 128.003906-22.625 22.628906zm0 0"/><path d="m180.679688 388.6875 128.003906-128.003906 22.625 22.628906-128 128.003906zm0 0"/><path d="m192 32h32v32h-32zm0 0"/></g></svg>