<svg width="28" height="28" viewBox="0 0 28 28" fill="none" xmlns="http://www.w3.org/2000/svg">
<path d="M13.0512 6.89768H9.29395C7.79093 6.89768 7.03942 6.89768 6.46534 7.19019C5.96036 7.44748 5.54981 7.85804 5.29251 8.36301C5 8.93709 5 9.68861 5 11.1916V18.706C5 20.2091 5 20.9606 5.29251 21.5347C5.54981 22.0396 5.96036 22.4502 6.46534 22.7075C7.03942 23 7.79093 23 9.29395 23H16.8084C18.3114 23 19.0629 23 19.637 22.7075C20.142 22.4502 20.5525 22.0396 20.8098 21.5347C21.1023 20.9606 21.1023 20.2091 21.1023 18.706V14.9488M10.3674 17.6326H11.8654C12.303 17.6326 12.5218 17.6326 12.7277 17.5831C12.9103 17.5393 13.0848 17.467 13.2449 17.3689C13.4255 17.2583 13.5802 17.1035 13.8896 16.7941L22.4442 8.23954C23.1853 7.49845 23.1853 6.29691 22.4442 5.55582C21.7031 4.81473 20.5016 4.81473 19.7605 5.55582L11.2059 14.1104C10.8964 14.4198 10.7417 14.5745 10.6311 14.7551C10.533 14.9152 10.4607 15.0897 10.4169 15.2723C10.3674 15.4782 10.3674 15.697 10.3674 16.1346V17.6326Z" stroke="#536C73" stroke-width="2" stroke-linecap="round" stroke-linejoin="round"/>
</svg>
