<svg width="28" height="28" viewBox="0 0 28 28" fill="none" xmlns="http://www.w3.org/2000/svg">
<path d="M9.33331 16.3334C9.33331 16.3334 11.0833 18.6667 14 18.6667C16.9166 18.6667 18.6666 16.3334 18.6666 16.3334M17.5 10.5H17.5116M10.5 10.5H10.5116M25.6666 14C25.6666 20.4434 20.4433 25.6667 14 25.6667C7.55666 25.6667 2.33331 20.4434 2.33331 14C2.33331 7.55672 7.55666 2.33337 14 2.33337C20.4433 2.33337 25.6666 7.55672 25.6666 14ZM18.0833 10.5C18.0833 10.8222 17.8221 11.0834 17.5 11.0834C17.1778 11.0834 16.9166 10.8222 16.9166 10.5C16.9166 10.1779 17.1778 9.91671 17.5 9.91671C17.8221 9.91671 18.0833 10.1779 18.0833 10.5ZM11.0833 10.5C11.0833 10.8222 10.8221 11.0834 10.5 11.0834C10.1778 11.0834 9.91665 10.8222 9.91665 10.5C9.91665 10.1779 10.1778 9.91671 10.5 9.91671C10.8221 9.91671 11.0833 10.1779 11.0833 10.5Z" stroke="#0088F7" stroke-width="2" stroke-linecap="round" stroke-linejoin="round"/>
</svg>
