<svg width="28" height="28" viewBox="0 0 28 28" fill="none" xmlns="http://www.w3.org/2000/svg">
<path d="M23.3333 13.9314V7.93337C23.3333 5.97319 23.3333 4.9931 22.9518 4.24441C22.6163 3.58584 22.0809 3.05041 21.4223 2.71485C20.6736 2.33337 19.6935 2.33337 17.7333 2.33337H10.2667C8.30647 2.33337 7.32638 2.33337 6.57769 2.71485C5.91912 3.05041 5.38369 3.58584 5.04813 4.24441C4.66666 4.9931 4.66666 5.97319 4.66666 7.93337V20.0667C4.66666 22.0269 4.66666 23.007 5.04813 23.7557C5.38369 24.4142 5.91912 24.9497 6.57769 25.2852C7.32638 25.6667 8.30647 25.6667 10.2667 25.6667H16.3333M16.3333 12.8334H9.33332M11.6667 17.5H9.33332M18.6667 8.16671H9.33332M17.5 19.8334H24.5" stroke="#536C73" stroke-width="2" stroke-linecap="round" stroke-linejoin="round"/>
</svg>
