<svg width="28" height="28" viewBox="0 0 28 28" fill="none" xmlns="http://www.w3.org/2000/svg">
<path d="M8.04998 13.3519V16.5926M8.04998 13.3519V5.57411C8.04998 4.50023 8.93795 3.62967 10.0333 3.62967C11.1287 3.62967 12.0166 4.50023 12.0166 5.57411M8.04998 13.3519C8.04998 12.278 7.16201 11.4074 6.06665 11.4074C4.97128 11.4074 4.08331 12.278 4.08331 13.3519V15.9445C4.08331 21.3139 8.52316 25.6667 14 25.6667C19.4768 25.6667 23.9166 21.3139 23.9166 15.9445V9.463C23.9166 8.38912 23.0287 7.51856 21.9333 7.51856C20.8379 7.51856 19.95 8.38912 19.95 9.463M12.0166 5.57411V12.7037M12.0166 5.57411V4.27782C12.0166 3.20393 12.9046 2.33337 14 2.33337C15.0953 2.33337 15.9833 3.20393 15.9833 4.27782V5.57411M15.9833 5.57411V12.7037M15.9833 5.57411C15.9833 4.50023 16.8713 3.62967 17.9666 3.62967C19.062 3.62967 19.95 4.50023 19.95 5.57411V9.463M19.95 9.463V12.7037" stroke="#0B2949" stroke-width="2" stroke-linecap="round" stroke-linejoin="round"/>
</svg>
