<svg width="28" height="28" viewBox="0 0 28 28" fill="none" xmlns="http://www.w3.org/2000/svg">
<path d="M23.1875 3.5H4.8125C3.60938 3.5 2.625 4.48438 2.625 5.6875V22.3125C2.625 23.5156 3.60938 24.5 4.8125 24.5H23.1875C24.3906 24.5 25.375 23.5156 25.375 22.3125V5.6875C25.375 4.48438 24.3906 3.5 23.1875 3.5ZM23.8438 13.125C23.8438 13.6062 23.45 14 22.9688 14H18.2219C17.85 14 17.5219 14.2297 17.3961 14.5797C17.1719 15.2141 16.6141 15.75 15.9688 15.75H12.0312C11.3805 15.75 10.8227 15.2141 10.6039 14.5797C10.4836 14.2297 10.15 14 9.77813 14H5.03125C4.55 14 4.15625 13.6062 4.15625 13.125V5.90625C4.15625 5.425 4.55 5.03125 5.03125 5.03125H22.9688C23.45 5.03125 23.8438 5.425 23.8438 5.90625V13.125Z" fill="#536C73"/>
<path d="M21.1094 8.53125H6.89062C6.46953 8.53125 6.125 8.18672 6.125 7.76562C6.125 7.34453 6.46953 7 6.89062 7H21.1094C21.5305 7 21.875 7.34453 21.875 7.76562C21.875 8.18672 21.5305 8.53125 21.1094 8.53125ZM21.1094 12.0312H6.89062C6.46953 12.0312 6.125 11.6867 6.125 11.2656C6.125 10.8445 6.46953 10.5 6.89062 10.5H21.1094C21.5305 10.5 21.875 10.8445 21.875 11.2656C21.875 11.6867 21.5305 12.0312 21.1094 12.0312Z" fill="#536C73"/>
</svg>
