<svg width="28" height="28" viewBox="0 0 28 28" fill="none" xmlns="http://www.w3.org/2000/svg">
<path d="M15.1667 6.99995L7.58547 8.51619C7.16197 8.60089 6.95023 8.64324 6.77779 8.74622C6.62534 8.83726 6.49569 8.96189 6.39871 9.11063C6.289 9.27887 6.23833 9.48878 6.137 9.90861L2.33334 25.6666M2.33334 25.6666L18.0913 21.863C18.5112 21.7616 18.7211 21.711 18.8893 21.6013C19.0381 21.5043 19.1627 21.3746 19.2537 21.2222C19.3567 21.0497 19.3991 20.838 19.4838 20.4145L21 12.8333M2.33334 25.6666L11.1837 16.8163M24.3467 9.18001L18.8199 3.65321C18.3579 3.19119 18.1269 2.96018 17.8605 2.87363C17.6262 2.79749 17.3738 2.79749 17.1395 2.87363C16.8731 2.96018 16.6421 3.19119 16.1801 3.65321L15.3199 4.51335C14.8579 4.97537 14.6269 5.20638 14.5404 5.47276C14.4642 5.70708 14.4642 5.95948 14.5404 6.1938C14.6269 6.46018 14.8579 6.69119 15.3199 7.15321L20.8467 12.68C21.3088 13.142 21.5398 13.373 21.8062 13.4596C22.0405 13.5357 22.2929 13.5357 22.5272 13.4596C22.7936 13.373 23.0246 13.142 23.4866 12.68L24.3467 11.8199C24.8088 11.3579 25.0398 11.1268 25.1263 10.8605C25.2025 10.6261 25.2025 10.3737 25.1263 10.1394C25.0398 9.87304 24.8088 9.64203 24.3467 9.18001ZM12.8333 12.8333C14.122 12.8333 15.1667 13.8779 15.1667 15.1666C15.1667 16.4553 14.122 17.4999 12.8333 17.4999C11.5447 17.4999 10.5 16.4553 10.5 15.1666C10.5 13.8779 11.5447 12.8333 12.8333 12.8333Z" stroke="#536C73" stroke-width="2" stroke-linecap="round" stroke-linejoin="round"/>
</svg>
