<svg width="28" height="28" viewBox="0 0 28 28" fill="none" xmlns="http://www.w3.org/2000/svg">
<path d="M21 8.16671V6.06671C21 4.75992 21 4.10652 20.7457 3.6074C20.522 3.16835 20.165 2.8114 19.726 2.58769C19.2268 2.33337 18.5734 2.33337 17.2666 2.33337H10.7333C9.42652 2.33337 8.77313 2.33337 8.274 2.58769C7.83496 2.8114 7.478 3.16835 7.2543 3.6074C6.99998 4.10652 6.99998 4.75992 6.99998 6.06671V8.16671M6.99998 21C5.91501 21 5.37253 21 4.92745 20.8808C3.71962 20.5571 2.77621 19.6137 2.45257 18.4059C2.33331 17.9608 2.33331 17.4183 2.33331 16.3334V13.7667C2.33331 11.8065 2.33331 10.8264 2.71479 10.0777C3.05035 9.41917 3.58578 8.88374 4.24435 8.54818C4.99304 8.16671 5.97313 8.16671 7.93331 8.16671H20.0666C22.0268 8.16671 23.0069 8.16671 23.7556 8.54818C24.4142 8.88374 24.9496 9.41917 25.2852 10.0777C25.6666 10.8264 25.6666 11.8065 25.6666 13.7667V16.3334C25.6666 17.4183 25.6666 17.9608 25.5474 18.4059C25.2238 19.6137 24.2803 20.5571 23.0725 20.8808C22.6274 21 22.0849 21 21 21M17.5 12.25H21M10.7333 25.6667H17.2666C18.5734 25.6667 19.2268 25.6667 19.726 25.4124C20.165 25.1887 20.522 24.8317 20.7457 24.3927C21 23.8936 21 23.2402 21 21.9334V20.0667C21 18.7599 21 18.1065 20.7457 17.6074C20.522 17.1684 20.165 16.8114 19.726 16.5877C19.2268 16.3334 18.5734 16.3334 17.2666 16.3334H10.7333C9.42652 16.3334 8.77313 16.3334 8.274 16.5877C7.83496 16.8114 7.478 17.1684 7.2543 17.6074C6.99998 18.1065 6.99998 18.7599 6.99998 20.0667V21.9334C6.99998 23.2402 6.99998 23.8936 7.2543 24.3927C7.478 24.8317 7.83496 25.1887 8.274 25.4124C8.77313 25.6667 9.42652 25.6667 10.7333 25.6667Z" stroke="#0B2949" stroke-width="2" stroke-linecap="round" stroke-linejoin="round"/>
</svg>
