<svg width="28" height="28" viewBox="0 0 28 28" fill="none" xmlns="http://www.w3.org/2000/svg">
<path d="M5.24998 25.6667V19.8334M5.24998 8.16671V2.33337M2.33331 5.25004H8.16665M2.33331 22.75H8.16665M15.1666 3.50004L13.1434 8.76038C12.8144 9.61581 12.6499 10.0435 12.3941 10.4033C12.1674 10.7222 11.8888 11.0008 11.5699 11.2275C11.2101 11.4833 10.7824 11.6478 9.92698 11.9768L4.66665 14L9.92699 16.0232C10.7824 16.3523 11.2101 16.5168 11.5699 16.7726C11.8888 16.9993 12.1674 17.2779 12.3941 17.5968C12.6499 17.9565 12.8144 18.3843 13.1434 19.2397L15.1666 24.5L17.1899 19.2397C17.5189 18.3843 17.6834 17.9565 17.9392 17.5968C18.1659 17.2779 18.4445 16.9993 18.7634 16.7726C19.1232 16.5168 19.5509 16.3523 20.4063 16.0232L25.6666 14L20.4063 11.9768C19.5509 11.6478 19.1232 11.4833 18.7634 11.2275C18.4445 11.0008 18.1659 10.7222 17.9392 10.4033C17.6834 10.0435 17.5189 9.61581 17.1899 8.76038L15.1666 3.50004Z" stroke="#0088F7" stroke-width="2" stroke-linecap="round" stroke-linejoin="round"/>
</svg>
