<svg width="28" height="28" viewBox="0 0 28 28" fill="none" xmlns="http://www.w3.org/2000/svg">
<path d="M13.9891 2.625C7.71094 2.625 2.625 7.72187 2.625 14C2.625 20.2781 7.71094 25.375 13.9891 25.375C20.2781 25.375 25.375 20.2781 25.375 14C25.375 7.72187 20.2781 2.625 13.9891 2.625ZM14 23.1C8.97422 23.1 4.9 19.0258 4.9 14C4.9 8.97422 8.97422 4.9 14 4.9C19.0258 4.9 23.1 8.97422 23.1 14C23.1 19.0258 19.0258 23.1 14 23.1Z" fill="#0088F7"/>
<path d="M14.5692 8.3125H12.863V15.1375L18.8349 18.7195L19.688 17.3195L14.5692 14.2844V8.3125Z" fill="#0088F7"/>
</svg>
